<svg xmlns="http://www.w3.org/2000/svg"  viewBox="0 0 100 100" width="200px" height="200px"><path fill="#ee3e54" d="M13,27c-1.105,0-2,0.895-2,2s0.895,2,2,2s2-0.895,2-2S14.105,27,13,27z"/><path fill="#f1bc19" d="M77,12c-0.552,0-1,0.448-1,1s0.448,1,1,1s1-0.448,1-1S77.552,12,77,12z"/><path fill="#fce0a2" d="M50,13c-20.435,0-37,16.565-37,37s16.565,37,37,37s37-16.565,37-37S70.435,13,50,13z"/><path fill="#f1bc19" d="M83,11c-2.209,0-4,1.791-4,4s1.791,4,4,4s4-1.791,4-4S85.209,11,83,11z"/><path fill="#ee3e54" d="M87,22c-1.105,0-2,0.895-2,2s0.895,2,2,2s2-0.895,2-2S88.105,22,87,22z"/><path fill="#fbcd59" d="M81,74c-1.105,0-2,0.895-2,2s0.895,2,2,2s2-0.895,2-2S82.105,74,81,74z M15,59 c-2.209,0-4,1.791-4,4c0,2.209,1.791,4,4,4s4-1.791,4-4C19,60.791,17.209,59,15,59z"/><path fill="#ee3e54" d="M25,85c-1.105,0-2,0.895-2,2s0.895,2,2,2s2-0.895,2-2S26.105,85,25,85z"/><path fill="#fff" d="M18.5,51c-1.381,0-2.5,1.119-2.5,2.5s1.119,2.5,2.5,2.5s2.5-1.119,2.5-2.5S19.881,51,18.5,51z"/><path fill="#f1bc19" d="M21,66c-0.552,0-1,0.448-1,1s0.448,1,1,1s1-0.448,1-1S21.552,66,21,66z"/><path fill="#fff" d="M80,33c-0.552,0-1,0.448-1,1s0.448,1,1,1s1-0.448,1-1S80.552,33,80,33z"/><path fill="#78a0cf" d="M35,72.3c-4.025,0-7.3-3.274-7.3-7.3V35c0-4.025,3.274-7.3,7.3-7.3h30c4.025,0,7.3,3.274,7.3,7.3v30 c0,4.025-3.274,7.3-7.3,7.3H35z"/><path fill="#472b29" d="M65,28.4c3.639,0,6.6,2.961,6.6,6.6v30c0,3.639-2.961,6.6-6.6,6.6H35c-3.639,0-6.6-2.961-6.6-6.6V35 c0-3.639,2.961-6.6,6.6-6.6H65 M65,27H35c-4.4,0-8,3.6-8,8v30c0,4.4,3.6,8,8,8h30c4.4,0,8-3.6,8-8V35C73,30.6,69.4,27,65,27L65,27z"/><path fill="#472b29" d="M64,69H36c-2.757,0-5-2.243-5-5V36c0-2.757,2.243-5,5-5h25.375c0.276,0,0.5,0.224,0.5,0.5 s-0.224,0.5-0.5,0.5H36c-2.206,0-4,1.794-4,4v28c0,2.206,1.794,4,4,4h28c2.206,0,4-1.794,4-4V49.625c0-0.276,0.224-0.5,0.5-0.5 s0.5,0.224,0.5,0.5V64C69,66.757,66.757,69,64,69z"/><path fill="#fdfcef" d="M62.5,50c0-6.904-5.596-12.5-12.5-12.5S37.5,43.096,37.5,50S43.096,62.5,50,62.5 c1.961,0,3.81-0.464,5.461-1.269L56.5,62.5h6l-3.311-4.047C61.238,56.227,62.5,53.264,62.5,50z M50,57.5 c-4.142,0-7.5-3.358-7.5-7.5s3.358-7.5,7.5-7.5s7.5,3.358,7.5,7.5c0,1.701-0.573,3.264-1.527,4.523L53.5,51.5h-6l4.65,5.683 C51.469,57.387,50.748,57.5,50,57.5z"/><path fill="#472b29" d="M62.5,63h-6c-0.15,0-0.292-0.067-0.387-0.184l-0.792-0.968C53.629,62.613,51.841,63,50,63 c-7.168,0-13-5.832-13-13s5.832-13,13-13s13,5.832,13,13c0,3.113-1.117,6.103-3.154,8.467l3.041,3.716 c0.123,0.149,0.148,0.356,0.065,0.53C62.869,62.889,62.693,63,62.5,63z M56.737,62h4.708l-2.643-3.23 c-0.157-0.192-0.149-0.472,0.02-0.655C60.871,55.888,62,53.006,62,50c0-6.617-5.383-12-12-12s-12,5.383-12,12s5.383,12,12,12 c1.819,0,3.583-0.41,5.242-1.219c0.208-0.102,0.459-0.047,0.606,0.133L56.737,62z M50,58c-4.411,0-8-3.589-8-8s3.589-8,8-8 s8,3.589,8,8c0,1.751-0.563,3.419-1.628,4.825c-0.093,0.122-0.236,0.195-0.389,0.198c-0.151,0.006-0.299-0.065-0.396-0.184 L53.263,52h-4.708l3.982,4.867c0.105,0.129,0.14,0.303,0.091,0.463s-0.175,0.285-0.335,0.333C51.544,57.887,50.773,58,50,58z M50,43c-3.86,0-7,3.14-7,7s3.14,7,7,7c0.421,0,0.843-0.039,1.259-0.115l-4.146-5.068c-0.122-0.149-0.147-0.356-0.064-0.531 C47.131,51.111,47.307,51,47.5,51h6c0.15,0,0.292,0.067,0.387,0.184l2.053,2.508C56.635,52.582,57,51.317,57,50 C57,46.14,53.86,43,50,43z"/><path fill="#472b29" d="M68.5,47.375c-0.276,0-0.5-0.224-0.5-0.5V43c0-0.276,0.224-0.5,0.5-0.5S69,42.724,69,43v3.875 C69,47.151,68.776,47.375,68.5,47.375z"/><path fill="#472b29" d="M68.5,40.5c-0.276,0-0.5-0.224-0.5-0.5v-2c0-0.276,0.224-0.5,0.5-0.5S69,37.724,69,38v2 C69,40.276,68.776,40.5,68.5,40.5z"/></svg>